<svg xmlns="http://www.w3.org/2000/svg" xmlns:xlink="http://www.w3.org/1999/xlink" width="200" zoomAndPan="magnify" viewBox="0 0 150 149.999998" height="200" preserveAspectRatio="xMidYMid meet" version="1.0"><defs><g/></defs><path fill="#392467" d="M 75.433594 8.925781 C 75.140625 9.140625 74.921875 9.867188 74.921875 10.519531 C 74.921875 12.046875 45.675781 32.4375 42.703125 33.019531 C 41.179688 33.382812 40.378906 33.960938 40.234375 35.050781 C 39.945312 37.007812 23.253906 52.683594 21.4375 52.683594 C 18.390625 52.683594 17.449219 55.585938 19.625 58.054688 C 21.292969 59.941406 30.003906 98.765625 29.710938 103.121094 L 29.566406 106.023438 L 33.558594 106.460938 C 38.785156 107.113281 69.261719 118.144531 71.222656 120.101562 C 72.890625 121.773438 75.070312 121.335938 75.941406 119.085938 C 76.519531 117.5625 107.144531 102.6875 110.847656 102.105469 C 113.386719 101.742188 113.75 101.378906 113.96875 99.492188 C 114.113281 98.332031 115.199219 96.082031 116.433594 94.414062 L 118.613281 91.511719 L 116 94.414062 C 114.546875 96.007812 113.386719 96.953125 113.386719 96.589844 C 113.386719 95.5 122.167969 84.472656 122.675781 84.90625 C 122.894531 85.125 122.457031 85.996094 121.730469 86.792969 C 121.007812 87.589844 120.570312 88.246094 120.859375 88.246094 C 121.078125 88.246094 122.3125 86.867188 123.617188 85.125 C 125.070312 83.308594 125.359375 82.65625 124.417969 83.453125 C 121.878906 85.632812 122.53125 84.109375 125.867188 79.972656 C 127.464844 77.941406 128.625 76.851562 128.410156 77.503906 C 128.046875 78.449219 128.335938 78.808594 129.277344 78.808594 C 132.546875 78.808594 132.980469 74.601562 129.859375 73.222656 C 128.410156 72.570312 127.464844 69.8125 122.964844 53.339844 C 120.0625 42.816406 117.523438 33.597656 117.304688 32.875 C 117.015625 32.074219 117.304688 31.640625 118.03125 31.640625 C 119.410156 31.640625 119.554688 29.390625 118.320312 28.15625 C 117.234375 27.066406 115.054688 26.996094 114.691406 28.082031 C 114.328125 29.246094 80.730469 12.769531 80.730469 11.320312 C 80.730469 9.070312 76.957031 7.328125 75.433594 8.925781 Z M 68.390625 20.753906 C 63.457031 25.542969 59.25 29.246094 59.03125 29.027344 C 58.886719 28.882812 59.828125 27.503906 61.207031 25.980469 L 63.675781 23.292969 L 60.773438 25.90625 C 59.175781 27.359375 57.289062 28.519531 56.5625 28.519531 C 55.183594 28.519531 55.183594 28.445312 59.175781 25.542969 C 60.628906 24.453125 62.585938 23.4375 63.457031 23.292969 C 64.402344 23.074219 67.519531 20.464844 70.570312 17.488281 C 73.542969 14.511719 76.300781 12.046875 76.738281 12.117188 C 77.101562 12.117188 73.398438 16.035156 68.390625 20.753906 Z M 96.621094 21.769531 C 105.765625 26.195312 113.167969 29.96875 112.949219 30.261719 C 112.804688 30.550781 108.015625 33.597656 102.28125 37.082031 C 90.308594 44.484375 89.367188 45.210938 91.035156 45.789062 C 91.6875 46.082031 95.242188 44.339844 100.035156 41.363281 C 104.316406 38.75 108.304688 36.5 108.8125 36.429688 C 109.324219 36.355469 111.136719 34.976562 112.804688 33.382812 C 116.796875 29.679688 115.128906 31.929688 108.378906 39.476562 C 105.402344 42.742188 102.863281 45.28125 102.644531 45.066406 C 102.429688 44.847656 103.808594 43.03125 105.765625 41.074219 C 107.726562 39.113281 109.105469 37.300781 108.886719 37.082031 C 108.667969 36.863281 106.636719 38.824219 104.316406 41.507812 C 101.921875 44.121094 99.164062 46.660156 98 47.023438 C 96.914062 47.460938 96.1875 48.039062 96.40625 48.402344 C 96.984375 49.347656 96.1875 49.203125 93.792969 47.96875 C 89.148438 45.574219 87.988281 45.355469 87.988281 46.878906 C 87.988281 47.675781 88.496094 48.183594 89.292969 48.183594 C 89.945312 48.183594 91.613281 48.621094 92.992188 49.203125 L 95.390625 50.289062 L 92.777344 51.886719 C 91.105469 52.902344 90.164062 54.0625 90.164062 55.007812 C 90.164062 57.472656 89.511719 56.167969 87.769531 50.144531 L 86.171875 44.558594 L 72.964844 38.605469 C 63.894531 34.613281 59.683594 32.363281 59.683594 31.640625 C 59.683594 30.984375 63.457031 26.703125 68.101562 22.207031 C 74.488281 15.890625 76.59375 14.148438 77.027344 14.949219 C 77.390625 15.527344 79.207031 22.132812 81.09375 29.605469 C 83.050781 37.15625 84.867188 43.25 85.230469 43.25 C 86.027344 43.25 86.171875 43.757812 82.179688 28.445312 C 80.222656 20.753906 78.550781 14.222656 78.550781 13.933594 C 78.550781 13.207031 77.828125 12.84375 96.621094 21.769531 Z M 53.226562 31.566406 C 52.5 32.875 46.839844 36.71875 45.605469 36.71875 C 45.316406 36.71875 45.386719 36.210938 45.75 35.628906 C 46.332031 34.46875 53.296875 29.460938 53.734375 29.824219 C 53.878906 29.96875 53.660156 30.769531 53.226562 31.566406 Z M 120.570312 49.925781 C 123.109375 59.214844 125.796875 68.722656 126.449219 70.972656 L 127.753906 75.109375 L 125.433594 74.164062 C 124.199219 73.65625 118.902344 71.335938 113.605469 69.085938 C 103.371094 64.730469 103.226562 64.660156 103.226562 65.675781 C 103.226562 66.039062 107.871094 68.289062 113.605469 70.753906 C 119.265625 73.222656 124.34375 75.472656 124.925781 75.835938 C 125.578125 76.269531 123.402344 77.722656 117.742188 80.699219 C 110.265625 84.617188 108.234375 86.210938 109.25 87.230469 C 109.46875 87.445312 112.949219 85.921875 117.015625 83.890625 L 124.417969 80.1875 L 118.757812 87.445312 C 112.226562 96.082031 111.355469 96.878906 110.554688 95.574219 C 110.191406 95.066406 108.597656 89.332031 106.925781 82.945312 C 101.558594 62.265625 102.429688 64.222656 97.421875 62.117188 C 95.027344 61.101562 93.066406 59.871094 93.066406 59.289062 C 93.066406 58.707031 92.558594 57.691406 91.976562 57.039062 C 91.035156 55.949219 91.179688 55.660156 93.863281 54.207031 C 95.460938 53.265625 96.984375 52.757812 97.203125 52.976562 C 97.421875 53.191406 98.144531 55.371094 98.871094 57.910156 C 99.523438 60.378906 100.46875 62.554688 100.902344 62.699219 C 101.410156 62.84375 101.195312 61.101562 100.25 57.984375 C 98.65625 52.175781 98.582031 51.886719 99.816406 52.175781 C 100.394531 52.25 100.6875 51.378906 100.6875 49.636719 C 100.6875 48.183594 101.121094 46.515625 101.628906 46.082031 C 102.066406 45.574219 102.5 45.429688 102.5 45.863281 C 102.5 46.226562 102.136719 46.953125 101.628906 47.460938 C 101.121094 47.96875 100.902344 48.332031 101.121094 48.332031 C 101.339844 48.332031 104.53125 44.917969 108.234375 40.710938 C 111.933594 36.5 115.199219 33.089844 115.417969 33.089844 C 115.707031 33.089844 118.03125 40.710938 120.570312 49.925781 Z M 71.585938 39.695312 C 78.84375 42.886719 85.082031 45.863281 85.445312 46.226562 C 86.316406 47.097656 83.125 49.78125 81.457031 49.710938 C 79.207031 49.5625 78.480469 49.78125 78.988281 50.652344 C 79.566406 51.597656 80.222656 51.8125 69.625 47.242188 C 65.273438 45.429688 61.5 44.050781 61.28125 44.265625 C 60.699219 44.847656 60.554688 44.773438 69.699219 48.621094 C 74.125 50.582031 77.828125 52.394531 77.828125 52.757812 C 77.828125 53.046875 75.214844 56.097656 72.019531 59.433594 C 68.828125 62.84375 66.214844 65.820312 66.214844 66.039062 C 66.214844 66.328125 69.335938 63.28125 73.253906 59.433594 C 77.101562 55.515625 79.421875 53.265625 78.480469 54.5 C 77.535156 55.660156 74.5625 59 71.804688 61.828125 C 68.246094 65.53125 66.867188 67.417969 67.085938 68.578125 C 67.304688 70.03125 67.738281 69.8125 73.835938 66.109375 C 77.464844 63.933594 80.875 62.191406 81.457031 62.117188 C 82.035156 62.117188 79.207031 64.152344 75.140625 66.546875 C 71.003906 69.011719 67.667969 71.480469 67.667969 71.988281 C 67.667969 73.65625 68.828125 73.222656 75.503906 69.304688 C 78.988281 67.273438 82.253906 65.53125 82.761719 65.457031 C 83.269531 65.386719 84.9375 64.007812 86.535156 62.480469 C 90.453125 58.636719 90.234375 60.015625 86.246094 64.296875 L 83.050781 67.707031 L 85.808594 78.085938 C 87.332031 83.746094 88.929688 88.753906 89.292969 89.117188 C 89.726562 89.550781 88.785156 84.90625 87.261719 78.808594 L 84.429688 67.707031 L 86.679688 64.949219 C 89.511719 61.464844 91.46875 61.101562 96.695312 63.425781 L 100.902344 65.3125 L 103.515625 75.472656 C 104.96875 81.132812 106.128906 85.921875 106.128906 86.210938 C 106.128906 86.503906 103.953125 87.953125 101.339844 89.40625 C 97.566406 91.511719 96.765625 92.234375 97.710938 92.742188 C 98.4375 93.179688 99.960938 92.816406 102.429688 91.511719 C 104.460938 90.496094 106.347656 89.695312 106.710938 89.695312 C 107 89.695312 107.796875 91.65625 108.453125 94.121094 C 109.539062 98.1875 109.539062 98.476562 108.453125 98.042969 C 107.726562 97.824219 99.378906 94.484375 89.800781 90.710938 C 75.941406 85.269531 72.3125 83.527344 72.238281 82.4375 C 72.167969 81.714844 73.980469 79.027344 76.230469 76.488281 C 82.980469 68.941406 83.558594 67.851562 77.246094 74.457031 C 73.980469 77.867188 71.367188 80.335938 71.296875 79.972656 C 71.296875 79.609375 73.980469 76.414062 77.171875 72.859375 C 80.4375 69.304688 82.90625 66.253906 82.761719 66.039062 C 82.542969 65.894531 79.640625 68.796875 76.300781 72.640625 C 72.964844 76.414062 69.84375 79.535156 69.335938 79.535156 C 68.320312 79.535156 68.390625 79.828125 62.222656 54.644531 C 57.289062 34.398438 57.214844 33.816406 57.941406 33.816406 C 58.230469 33.816406 64.328125 36.429688 71.585938 39.695312 Z M 56.707031 37.878906 C 57.214844 39.765625 57.433594 41.363281 57.289062 41.507812 C 57.144531 41.652344 55.257812 41.074219 53.152344 40.128906 L 49.304688 38.460938 L 51.773438 36.5 C 53.152344 35.414062 54.605469 34.542969 55.039062 34.542969 C 55.546875 34.542969 56.273438 36.066406 56.707031 37.878906 Z M 39 39.765625 C 36.96875 41.871094 36.386719 42.742188 37.550781 41.726562 C 41.542969 38.386719 42.265625 37.953125 42.265625 38.824219 C 42.265625 39.621094 36.171875 44.339844 35.082031 44.339844 C 34.792969 44.339844 33.121094 45.429688 31.382812 46.808594 C 25.648438 51.234375 25.792969 50.941406 33.558594 43.46875 C 41.542969 35.703125 45.167969 33.308594 39 39.765625 Z M 61.0625 55.371094 C 62.660156 61.972656 63.746094 67.78125 63.53125 68.359375 C 63.3125 68.941406 62.515625 69.375 61.789062 69.375 C 60.988281 69.375 60.410156 69.882812 60.410156 70.539062 C 60.410156 71.117188 60.121094 71.480469 59.828125 71.261719 C 57.941406 70.101562 51.699219 68.070312 51.699219 68.578125 C 51.699219 68.941406 53.078125 69.738281 54.75 70.464844 C 56.417969 71.117188 58.523438 72.425781 59.394531 73.367188 L 60.988281 75.109375 L 58.523438 76.632812 C 57.070312 77.429688 55.183594 78.085938 54.3125 78.085938 C 52.789062 78.085938 52.5 77.578125 51.628906 73.296875 C 51.121094 70.609375 50.25 68.070312 49.742188 67.5625 C 49.234375 67.054688 43.28125 64.441406 36.460938 61.683594 C 29.710938 59 24.125 56.386719 24.125 55.949219 C 24.125 54.644531 42.992188 42.308594 43.28125 43.394531 C 44.152344 46.007812 48.074219 63.425781 48.074219 64.515625 C 48.074219 65.675781 49.523438 66.328125 49.523438 65.167969 C 49.523438 64.875 48.363281 59.507812 46.839844 53.191406 L 44.152344 41.652344 L 45.894531 40.347656 C 47.492188 39.113281 47.710938 39.113281 52.863281 41.292969 L 58.160156 43.46875 Z M 87.1875 53.773438 C 87.261719 55.226562 84.066406 57.765625 82.324219 57.765625 C 80.4375 57.765625 81.164062 54.425781 83.558594 51.960938 C 85.882812 49.710938 86.101562 49.5625 86.609375 50.871094 C 86.898438 51.667969 87.1875 52.976562 87.1875 53.773438 Z M 80.292969 58.925781 C 79.496094 60.160156 70.351562 65.746094 69.917969 65.3125 C 69.699219 65.09375 71.804688 62.699219 74.632812 59.871094 C 79.277344 55.152344 79.714844 54.933594 80.292969 56.386719 C 80.730469 57.328125 80.730469 58.273438 80.292969 58.925781 Z M 36.460938 63.0625 L 49.160156 68.289062 L 50.320312 73.003906 C 50.976562 75.617188 51.339844 78.664062 51.121094 79.898438 C 50.683594 82.292969 34.140625 100.582031 32.398438 100.582031 C 31.890625 100.582031 31.308594 100 31.089844 99.277344 C 30.65625 97.824219 21.945312 58.707031 21.945312 58.128906 C 21.945312 57.328125 24.34375 58.128906 36.460938 63.0625 Z M 85.882812 59.941406 C 84.9375 60.742188 83.851562 61.394531 83.34375 61.394531 C 82.90625 61.394531 83.34375 60.742188 84.359375 59.941406 C 86.753906 58.054688 88.132812 58.128906 85.882812 59.941406 Z M 66.503906 77.359375 C 66.941406 79.679688 65.996094 83.164062 64.835938 83.164062 C 63.746094 83.164062 63.09375 77.429688 64.039062 76.269531 C 65.34375 74.675781 65.996094 74.964844 66.503906 77.359375 Z M 62.875 81.859375 L 63.386719 84.542969 L 60.046875 83.382812 C 58.230469 82.65625 56.78125 81.714844 56.78125 81.277344 C 56.78125 80.769531 57.871094 79.753906 59.101562 78.882812 C 61.789062 77.214844 62.078125 77.503906 62.875 81.859375 Z M 47.492188 88.027344 C 40.960938 95.210938 34.5 101.523438 35.371094 99.855469 C 36.386719 98.113281 51.992188 81.714844 52.644531 81.714844 C 53.007812 81.714844 50.683594 84.542969 47.492188 88.027344 Z M 58.742188 84.253906 C 60.191406 84.832031 61.207031 85.488281 61.0625 85.632812 C 60.917969 85.777344 57.214844 87.882812 52.789062 90.421875 C 48.433594 92.890625 43.71875 95.574219 42.484375 96.371094 C 41.179688 97.171875 40.089844 97.605469 40.089844 97.316406 C 40.089844 96.371094 52.0625 84.253906 53.441406 83.746094 C 55.765625 83.09375 55.910156 83.09375 58.742188 84.253906 Z M 80.875 88.753906 C 86.753906 91.074219 89.4375 92.527344 89.65625 93.398438 C 89.875 94.195312 89.800781 94.777344 89.582031 94.777344 C 88.929688 94.777344 68.101562 86.648438 67.519531 86.140625 C 67.230469 85.921875 68.246094 85.632812 69.699219 85.558594 C 71.441406 85.414062 75.285156 86.503906 80.875 88.753906 Z M 77.464844 91.582031 C 83.632812 93.90625 88.710938 96.226562 88.710938 96.734375 C 88.710938 97.898438 74.054688 115.75 73.035156 115.75 C 72.675781 115.820312 70.789062 109.363281 68.898438 101.453125 C 65.851562 88.679688 64.910156 84.109375 65.925781 86.503906 C 66.070312 86.9375 71.296875 89.1875 77.464844 91.582031 Z M 67.8125 102.105469 C 69.699219 109.871094 71.148438 116.546875 71.078125 116.984375 C 71.003906 117.417969 64.617188 115.53125 56.054688 112.410156 C 35.082031 104.9375 34.9375 104.863281 35.15625 104.066406 C 35.519531 103.121094 62.730469 87.519531 63.675781 87.808594 C 64.039062 87.882812 65.925781 94.339844 67.8125 102.105469 Z M 101.773438 96.953125 C 104.75 98.1875 107.21875 99.277344 107.433594 99.421875 C 107.726562 99.710938 82.324219 112.699219 77.535156 114.660156 L 74.707031 115.820312 L 77.320312 112.773438 C 78.769531 111.03125 80.222656 109.726562 80.585938 109.796875 C 80.945312 109.871094 82.035156 109.074219 82.980469 107.984375 L 84.722656 106.023438 L 82.761719 107.765625 C 81.601562 108.78125 80.730469 109.289062 80.730469 109 C 80.730469 108.054688 90.308594 96.878906 90.746094 97.316406 C 90.960938 97.535156 90.382812 98.550781 89.367188 99.710938 L 87.625 101.671875 L 89.511719 100 C 90.527344 99.128906 91.761719 98.40625 92.195312 98.40625 C 92.632812 98.40625 93.574219 97.605469 94.226562 96.589844 C 94.878906 95.574219 95.679688 94.777344 95.96875 94.777344 C 96.257812 94.777344 98.871094 95.792969 101.773438 96.953125 Z M 101.773438 96.953125 " fill-opacity="1" fill-rule="nonzero"/><path fill="#392467" d="M 85.738281 103.992188 L 83.996094 106.023438 L 86.027344 104.28125 C 87.839844 102.613281 88.347656 102.03125 87.769531 102.03125 C 87.625 102.03125 86.753906 102.902344 85.738281 103.992188 Z M 85.738281 103.992188 " fill-opacity="1" fill-rule="nonzero"/><path fill="#392467" d="M 78.84375 112.339844 L 77.464844 114.007812 L 79.132812 112.628906 C 80.003906 111.832031 80.730469 111.105469 80.730469 110.960938 C 80.730469 110.378906 80.148438 110.8125 78.84375 112.339844 Z M 78.84375 112.339844 " fill-opacity="1" fill-rule="nonzero"/><path fill="#392467" d="M 126.375 80.769531 C 125.433594 81.929688 125.503906 82.003906 126.667969 81.058594 C 127.320312 80.550781 127.902344 79.972656 127.902344 79.828125 C 127.902344 79.246094 127.320312 79.609375 126.375 80.769531 Z M 126.375 80.769531 " fill-opacity="1" fill-rule="nonzero"/><path fill="#392467" d="M 119.121094 90.203125 C 118.175781 91.363281 118.25 91.4375 119.410156 90.496094 C 120.570312 89.550781 120.933594 88.96875 120.351562 88.96875 C 120.207031 88.96875 119.628906 89.550781 119.121094 90.203125 Z M 119.121094 90.203125 " fill-opacity="1" fill-rule="nonzero"/><g fill="#392467" fill-opacity="1"><g transform="translate(46.21368, 141.902252)"><g><path d="M 11.757812 -5.328125 C 11.019531 -3.261719 9.996094 -2.015625 8.957031 -2.015625 C 8.558594 -2.015625 8.300781 -2.222656 8.300781 -2.6875 C 8.300781 -2.910156 8.351562 -3.167969 8.460938 -3.488281 L 11.390625 -12.09375 C 11.453125 -12.300781 11.484375 -12.476562 11.484375 -12.652344 C 11.484375 -13.40625 10.910156 -13.882812 10.285156 -13.882812 C 9.757812 -13.882812 9.199219 -13.546875 8.910156 -12.734375 C 8.429688 -11.355469 7.820312 -9.4375 7.359375 -8.0625 L 4.589844 -8.0625 L 5.964844 -12.078125 C 6.046875 -12.316406 6.078125 -12.523438 6.078125 -12.734375 C 6.078125 -13.46875 5.550781 -13.882812 4.976562 -13.882812 C 4.414062 -13.882812 3.789062 -13.5 3.550781 -12.667969 L 1.933594 -8.0625 L 1.230469 -8.0625 C 0.257812 -8.0625 -0.144531 -7.550781 -0.144531 -7.039062 C -0.144531 -6.542969 0.238281 -6.046875 0.847656 -6.046875 L 1.230469 -6.046875 L -0.289062 -1.617188 C -0.351562 -1.441406 -0.382812 -1.261719 -0.382812 -1.121094 C -0.382812 -0.433594 0.222656 0 0.863281 0 C 1.390625 0 1.953125 -0.304688 2.175781 -1.023438 C 2.671875 -2.496094 3.390625 -4.574219 3.886719 -6.046875 C 4.894531 -6.046875 5.726562 -6.0625 6.6875 -6.0625 C 6.382812 -5.183594 6.207031 -4.71875 5.917969 -3.886719 C 5.789062 -3.488281 5.726562 -3.085938 5.726562 -2.71875 C 5.726562 -1.023438 7.101562 0 8.765625 0 C 11.164062 0 12.75 -2.03125 13.691406 -4.863281 C 13.722656 -4.957031 13.757812 -5.152344 13.757812 -5.230469 C 13.757812 -5.726562 13.277344 -6 12.78125 -6 C 12.332031 -6 11.886719 -5.789062 11.757812 -5.328125 Z M 11.757812 -5.328125 "/></g></g></g><g fill="#392467" fill-opacity="1"><g transform="translate(57.201194, 141.902252)"><g><path d="M 6.765625 -3.34375 C 6.765625 -3.328125 6.765625 -3.582031 6.703125 -3.886719 C 6.8125 -3.96875 6.925781 -4.09375 7.023438 -4.238281 C 7.292969 -4.640625 7.773438 -6.03125 7.773438 -6.671875 C 7.773438 -8.300781 6.429688 -9.390625 4.703125 -9.390625 C 3.199219 -9.390625 1.777344 -8.558594 1.261719 -7.132812 L 0.0976562 -3.839844 C -0.046875 -3.4375 -0.113281 -3.039062 -0.113281 -2.6875 C -0.113281 -1.007812 1.328125 0 2.960938 0 C 4.207031 0 5.34375 -0.398438 6.015625 -1.550781 C 6.300781 -1.472656 6.636719 -1.421875 6.972656 -1.421875 C 8.863281 -1.421875 10.347656 -2.765625 10.894531 -4.445312 C 10.941406 -4.621094 10.972656 -4.78125 10.972656 -4.925781 C 10.972656 -5.519531 10.542969 -5.855469 10.078125 -5.855469 C 9.644531 -5.855469 9.199219 -5.597656 9.023438 -5.007812 C 8.667969 -4.015625 7.933594 -3.328125 6.988281 -3.328125 C 6.925781 -3.328125 6.832031 -3.328125 6.765625 -3.34375 Z M 5.277344 -5.804688 C 5.230469 -5.664062 5.183594 -5.535156 5.167969 -5.40625 C 4.285156 -5.503906 3.503906 -4.78125 3.503906 -3.824219 C 3.519531 -3.277344 3.789062 -2.992188 4.09375 -2.734375 C 3.886719 -2.175781 3.421875 -1.902344 2.925781 -1.902344 C 2.304688 -1.902344 2.144531 -2.289062 2.144531 -2.671875 C 2.144531 -2.976562 2.222656 -3.261719 2.289062 -3.421875 L 3.421875 -6.671875 C 3.613281 -7.199219 4.175781 -7.503906 4.671875 -7.503906 C 5.167969 -7.503906 5.488281 -7.167969 5.488281 -6.796875 C 5.488281 -6.511719 5.390625 -6.140625 5.277344 -5.804688 Z M 5.277344 -5.804688 "/></g></g></g><g fill="#392467" fill-opacity="1"><g transform="translate(65.549782, 141.902252)"><g><path d="M 2.191406 -2.605469 L 5.550781 -12.332031 C 5.613281 -12.523438 5.648438 -12.714844 5.648438 -12.875 C 5.648438 -13.484375 5.070312 -13.882812 4.589844 -13.882812 C 3.984375 -13.882812 3.582031 -13.546875 3.328125 -12.828125 L 0 -3.328125 C -0.128906 -2.960938 -0.191406 -2.625 -0.191406 -2.289062 C -0.191406 -0.816406 1.023438 0 2.429688 0 C 3.949219 0 5.855469 -0.945312 6.972656 -4.269531 C 7.007812 -4.382812 7.023438 -4.496094 7.023438 -4.589844 C 7.023438 -5.101562 6.574219 -5.46875 6.078125 -5.46875 C 5.679688 -5.46875 5.246094 -5.230469 5.023438 -4.640625 C 4.304688 -2.71875 3.375 -1.902344 2.625 -1.902344 C 2.304688 -1.902344 2.128906 -2.09375 2.128906 -2.335938 C 2.128906 -2.398438 2.160156 -2.511719 2.191406 -2.605469 Z M 2.191406 -2.605469 "/></g></g></g><g fill="#392467" fill-opacity="1"><g transform="translate(70.011964, 141.902252)"><g><path d="M 6.765625 -3.34375 C 6.765625 -3.328125 6.765625 -3.582031 6.703125 -3.886719 C 6.8125 -3.96875 6.925781 -4.09375 7.023438 -4.238281 C 7.292969 -4.640625 7.773438 -6.03125 7.773438 -6.671875 C 7.773438 -8.300781 6.429688 -9.390625 4.703125 -9.390625 C 3.199219 -9.390625 1.777344 -8.558594 1.261719 -7.132812 L 0.0976562 -3.839844 C -0.046875 -3.4375 -0.113281 -3.039062 -0.113281 -2.6875 C -0.113281 -1.007812 1.328125 0 2.960938 0 C 4.207031 0 5.34375 -0.398438 6.015625 -1.550781 C 6.300781 -1.472656 6.636719 -1.421875 6.972656 -1.421875 C 8.863281 -1.421875 10.347656 -2.765625 10.894531 -4.445312 C 10.941406 -4.621094 10.972656 -4.78125 10.972656 -4.925781 C 10.972656 -5.519531 10.542969 -5.855469 10.078125 -5.855469 C 9.644531 -5.855469 9.199219 -5.597656 9.023438 -5.007812 C 8.667969 -4.015625 7.933594 -3.328125 6.988281 -3.328125 C 6.925781 -3.328125 6.832031 -3.328125 6.765625 -3.34375 Z M 5.277344 -5.804688 C 5.230469 -5.664062 5.183594 -5.535156 5.167969 -5.40625 C 4.285156 -5.503906 3.503906 -4.78125 3.503906 -3.824219 C 3.519531 -3.277344 3.789062 -2.992188 4.09375 -2.734375 C 3.886719 -2.175781 3.421875 -1.902344 2.925781 -1.902344 C 2.304688 -1.902344 2.144531 -2.289062 2.144531 -2.671875 C 2.144531 -2.976562 2.222656 -3.261719 2.289062 -3.421875 L 3.421875 -6.671875 C 3.613281 -7.199219 4.175781 -7.503906 4.671875 -7.503906 C 5.167969 -7.503906 5.488281 -7.167969 5.488281 -6.796875 C 5.488281 -6.511719 5.390625 -6.140625 5.277344 -5.804688 Z M 5.277344 -5.804688 "/></g></g></g><g fill="#392467" fill-opacity="1"><g transform="translate(78.360552, 141.902252)"><g><path d="M 1.566406 -7.484375 L -2.703125 4.542969 C -2.765625 4.71875 -2.800781 4.894531 -2.800781 5.054688 C -2.800781 5.726562 -2.238281 6.160156 -1.648438 6.160156 C -1.152344 6.160156 -0.640625 5.855469 -0.382812 5.101562 L 4.03125 -7.484375 L 5.199219 -7.503906 C 5.949219 -7.519531 6.300781 -8.0625 6.300781 -8.527344 C 6.300781 -8.972656 5.964844 -9.390625 5.375 -9.390625 L 4.71875 -9.390625 L 5.613281 -11.902344 C 5.742188 -12.285156 6.046875 -12.523438 6.316406 -12.523438 C 6.652344 -12.523438 6.78125 -12.332031 6.78125 -12.0625 C 6.78125 -11.964844 6.765625 -11.867188 6.734375 -11.757812 C 6.652344 -11.597656 6.621094 -11.453125 6.621094 -11.308594 C 6.621094 -10.75 7.167969 -10.367188 7.726562 -10.367188 C 8.238281 -10.367188 8.765625 -10.683594 8.941406 -11.46875 C 8.988281 -11.691406 9.023438 -11.902344 9.023438 -12.109375 C 9.023438 -13.515625 7.933594 -14.570312 6.542969 -14.570312 C 5.183594 -14.570312 3.824219 -13.804688 3.230469 -12.140625 L 2.253906 -9.390625 L 1.839844 -9.390625 C 0.847656 -9.390625 0.433594 -8.828125 0.433594 -8.316406 C 0.433594 -7.871094 0.734375 -7.484375 1.230469 -7.484375 Z M 1.566406 -7.484375 "/></g></g></g><g fill="#392467" fill-opacity="1"><g transform="translate(83.478462, 141.902252)"><g><path d="M 4.304688 -10.859375 C 5.023438 -10.859375 5.613281 -11.453125 5.613281 -12.1875 C 5.613281 -12.910156 5.023438 -13.484375 4.304688 -13.484375 C 3.582031 -13.484375 2.992188 -12.910156 2.992188 -12.1875 C 2.992188 -11.453125 3.582031 -10.859375 4.304688 -10.859375 Z M 2.144531 -2.703125 L 3.902344 -7.726562 C 3.96875 -7.933594 4.046875 -8.15625 4.046875 -8.316406 C 4.046875 -9.023438 3.519531 -9.390625 2.976562 -9.390625 C 2.480469 -9.390625 1.953125 -9.039062 1.695312 -8.285156 C 1.183594 -6.78125 0.511719 -4.878906 0 -3.390625 C -0.0976562 -3.070312 -0.222656 -2.640625 -0.222656 -2.367188 C -0.222656 -0.863281 1.023438 0 2.496094 0 C 4.0625 0 5.789062 -0.960938 6.910156 -4.269531 C 6.941406 -4.367188 6.957031 -4.460938 6.957031 -4.558594 C 6.957031 -5.054688 6.476562 -5.359375 6 -5.359375 C 5.566406 -5.359375 5.132812 -5.132812 4.941406 -4.640625 C 4.191406 -2.558594 3.34375 -1.902344 2.703125 -1.902344 C 2.335938 -1.902344 2.09375 -2.144531 2.09375 -2.449219 C 2.09375 -2.527344 2.113281 -2.605469 2.144531 -2.703125 Z M 2.144531 -2.703125 "/></g></g></g><g fill="#392467" fill-opacity="1"><g transform="translate(87.892662, 141.902252)"><g><path d="M 8.863281 -4.75 C 8.589844 -4 8.191406 -3.566406 7.597656 -3.566406 C 7.070312 -3.566406 6.796875 -3.902344 6.796875 -4.335938 C 6.796875 -4.460938 6.832031 -4.621094 6.878906 -4.765625 C 7.742188 -6.335938 8.300781 -7.183594 8.300781 -8.0625 C 8.300781 -8.84375 7.855469 -9.390625 6.972656 -9.390625 C 5.359375 -9.390625 4.207031 -7.117188 4.207031 -5.421875 C 4.207031 -5.039062 4.269531 -4.6875 4.398438 -4.367188 L 3.519531 -3.039062 C 3.277344 -2.6875 2.734375 -2.03125 2.511719 -2.03125 C 2.464844 -2.03125 2.429688 -2.078125 2.429688 -2.175781 C 2.429688 -2.320312 2.449219 -2.464844 2.496094 -2.640625 L 3.710938 -7.773438 C 3.757812 -7.949219 3.773438 -8.109375 3.773438 -8.253906 C 3.773438 -9.023438 3.246094 -9.390625 2.6875 -9.390625 C 2.113281 -9.390625 1.535156 -9.023438 1.375 -8.332031 L 0.207031 -3.121094 C 0.144531 -2.832031 0.113281 -2.542969 0.113281 -2.289062 C 0.113281 -0.863281 1.023438 0 2.269531 0 C 3.40625 0 3.933594 -0.527344 4.992188 -1.742188 L 5.582031 -2.464844 C 6.03125 -1.933594 6.734375 -1.632812 7.582031 -1.632812 C 9.132812 -1.632812 10.300781 -2.671875 10.796875 -4.320312 C 10.828125 -4.414062 10.828125 -4.496094 10.828125 -4.574219 C 10.828125 -5.101562 10.332031 -5.421875 9.835938 -5.421875 C 9.421875 -5.421875 9.023438 -5.214844 8.863281 -4.75 Z M 8.863281 -4.75 "/></g></g></g><g fill="#392467" fill-opacity="1"><g transform="translate(96.193277, 141.902252)"><g><path d="M 8.09375 -4.511719 C 7.390625 -2.65625 5.710938 -1.902344 4.351562 -1.902344 C 3.183594 -1.902344 2.449219 -2.464844 2.449219 -3.199219 C 2.449219 -3.34375 2.464844 -3.488281 2.527344 -3.648438 L 2.65625 -3.949219 C 3.121094 -3.664062 3.695312 -3.472656 4.335938 -3.472656 C 5.789062 -3.472656 7.070312 -4.382812 7.503906 -5.824219 C 7.582031 -6.125 7.628906 -6.429688 7.628906 -6.703125 C 7.628906 -8.222656 6.429688 -9.390625 4.621094 -9.390625 C 3.199219 -9.390625 1.808594 -8.558594 1.246094 -6.957031 L 0.304688 -4.222656 C 0.175781 -3.839844 0.0976562 -3.457031 0.0976562 -3.085938 C 0.0976562 -1.183594 1.886719 0 4.222656 0 C 6.445312 0 8.972656 -1.085938 10.03125 -4.144531 C 10.078125 -4.269531 10.09375 -4.382812 10.09375 -4.480469 C 10.09375 -4.976562 9.644531 -5.246094 9.164062 -5.246094 C 8.71875 -5.246094 8.238281 -5.007812 8.09375 -4.511719 Z M 4.574219 -7.503906 C 5.023438 -7.503906 5.3125 -7.132812 5.3125 -6.671875 C 5.3125 -6.542969 5.292969 -6.414062 5.246094 -6.285156 C 5.085938 -5.757812 4.605469 -5.566406 4.125 -5.566406 C 3.824219 -5.566406 3.519531 -5.628906 3.296875 -5.757812 L 3.632812 -6.71875 C 3.808594 -7.214844 4.207031 -7.503906 4.574219 -7.503906 Z M 4.574219 -7.503906 "/></g></g></g></svg>